PathFileType	4	(X/Y/Z)	28_2_8_p0_0-284_filt_butterworth.trc
DataRate	CameraRate	NumFrames	NumMarkers	Units	OrigDataRate	OrigDataStartFrame	OrigNumFrames
59.0	59.0	5	27	m	59.0	0	284
Frame#	Time	RHip			RKnee			RAnkle			RBigToe			RSmallToe			RHeel			LHip			LKnee			LAnkle			LBigToe			LSmallToe			LHeel			Neck			Head			Nose			RShoulder			RElbow			RWrist			RThumb			RIndex			RPinky			LShoulder			LElbow			LWrist			LThumb			LIndex			LPinky			
		X1	Y1	Z1	X2	Y2	Z2	X3	Y3	Z3	X4	Y4	Z4	X5	Y5	Z5	X6	Y6	Z6	X7	Y7	Z7	X8	Y8	Z8	X9	Y9	Z9	X10	Y10	Z10	X11	Y11	Z11	X12	Y12	Z12	X13	Y13	Z13	X14	Y14	Z14	X15	Y15	Z15	X16	Y16	Z16	X17	Y17	Z17	X18	Y18	Z18	X19	Y19	Z19	X20	Y20	Z20	X21	Y21	Z21	X22	Y22	Z22	X23	Y23	Z23	X24	Y24	Z24	X25	Y25	Z25	X26	Y26	Z26	X27	Y27	Z27	
0	0.0	0.2647203964654589	0.6877024994169643	1.0106214894299337	0.2800405768156856	0.8520701514293045	1.368456692749441	0.2882535768838229	1.0817891432060018	1.7355194529866484	0.24765902776219723	0.9336403739244177	1.8016994563743667	0.3094926859869671	0.9555503095646192	1.8040237301745972	0.29105318421305376	1.183957249351276	1.7808454194536063	0.07483941119213276	0.753945656443238	1.0103358352087646	0.07771661256564058	0.9261477918105661	1.3721961369851634	0.08110772778823969	1.152396028374075	1.7652563119000209	0.03447090734412711	0.9008719831602002	1.8061676264927673	-0.012491808411453715	0.9455931742741889	1.7864498864634701	0.11373081746679138	1.205935023398528	1.7963271620886865	0.15887000570163196	0.5451489493703717	0.4871202899634161	0.164809279060875	0.4111650556977731	0.28419335361650977	0.15560790484382883	0.36965024679192077	0.41438131758883945	0.30137995681038976	0.5246012123958099	0.5724327457699154	0.34590882859550215	0.5960916869425876	0.8257183324123635	0.2113415195911208	0.5836833294601877	1.0064463173211202	0.14756412428113058	0.5616768915608384	1.0763392172521207	0.1408432574496353	0.5893604674212619	1.0853828047846759	0.15914781605394593	0.6065388761724793	1.0956464920335034	0.012220971059895842	0.5561860072645771	0.5672244891521206	-0.0007700189634668116	0.5983600703627965	0.8098072791689814	0.08141684452592726	0.5430936432792053	0.9976611928889104	0.1750414723877489	0.5414649690739579	1.0449461096902777	0.177350996461958	0.5584215363279295	1.0882126891036228	0.15785575081529243	0.5901910009045414	1.1032942662894896
1	0.0169491525423728	0.2653880783122193	0.6894335679932746	1.0130598063448442	0.2805941924091651	0.8550011072412433	1.376216927045969	0.28795057988457673	1.0780785476883004	1.7298746349015794	0.24596962286325472	0.9343150256363422	1.8020141659635396	0.3093827952622599	0.9560891854970504	1.8042045330901648	0.29023240572917386	1.1815201667431812	1.7790430559297752	0.07555250189578629	0.7562648219719472	1.014784636900086	0.08044738670713529	0.9159012378198284	1.3739783188536192	0.08393144602216143	1.1405793204069294	1.7631021117646497	0.03511592425729931	0.903057000097657	1.809220636692841	-0.013089800182742549	0.9660971100674139	1.7907139890231547	0.11623819401784	1.1929825241199643	1.7937585771123208	0.158901414923911	0.5450208811446505	0.48713732094788414	0.15903845769037844	0.41398438663164955	0.2836814446834588	0.15526401268422346	0.36866784197940033	0.4126462107349418	0.2996198181184584	0.5201463435900863	0.5729092973074661	0.34291654203252836	0.5888382295103758	0.8260841931242359	0.21138122550708632	0.5843682749308113	1.0065247460527669	0.14775244228217604	0.5622178247643497	1.0755713593837395	0.13788268920257876	0.6015279471538685	1.0868013710842606	0.15692335959395218	0.6148990000835055	1.0958452935104737	0.012520541081649876	0.5574775190483379	0.5691166961253717	0.0018419439110667739	0.5992658151606965	0.810721903435691	0.08149735799332461	0.543436555550141	0.9988806391712809	0.17044602976447581	0.541227806978122	1.0463503338420348	0.1735303154126871	0.5623847567292923	1.0873488235446886	0.15406786784265425	0.5950853875033304	1.1011971376425407
2	0.0338983050847457	0.2657909959089112	0.6904925868459318	1.0145106627948792	0.2809250571288025	0.8567443045762504	1.380808501629567	0.2878152849393195	1.0756609426363515	1.7264735048253188	0.24567647775708532	0.9352671230176839	1.8022793545464264	0.3093243893627038	0.9564523785555653	1.8043196246711692	0.28969304219282593	1.1800983385728954	1.7774092343585606	0.07590815167573099	0.7571629890921111	1.016704900602833	0.08210634562763901	0.9095753665606477	1.3749599282904539	0.08558561232529814	1.1334913645972042	1.761742678338626	0.03548732885193703	0.904369558071046	1.8110920740068017	-0.013457563827215533	0.9782771013292618	1.793252817736172	0.11770479765322098	1.1852657190042548	1.7922416828893737	0.15893318710094465	0.5449257752528985	0.4871577170534532	0.1551898706471047	0.41398372246621806	0.2839036311086197	0.155105188372056	0.36811747176442233	0.4122090865829614	0.2978625587984863	0.5155739545742735	0.5729050426480542	0.3412122304372086	0.5845621261574744	0.8264592674343846	0.21097232820149925	0.5834036347935603	1.0066367527982492	0.14770177927832856	0.5609407598062837	1.0753660006744825	0.13680018308582265	0.6082584025171899	1.0881890173757918	0.15569008466906242	0.6198559000733104	1.096003304042061	0.012702088524263943	0.5582401912194275	0.5702516355417334	0.0034403169780038213	0.5999158059909692	0.8117174037709505	0.0815649292799804	0.5437045946348706	1.0000782562184394	0.16784313864844533	0.5380480412783757	1.0480394532456088	0.1706664834400333	0.562827984502779	1.0873615419151075	0.15124827769185945	0.5962416726020301	1.1000433058933385
3	0.0508474576271186	0.26591108242382694	0.690825791646897	1.0149083933333802	0.28101795535035007	0.8572197487012846	1.3820348569402696	0.28777193308256505	1.0751580449743785	1.7255684354508602	0.2463854290224743	0.9361546302792298	1.8024396646945182	0.3093220918301452	0.9566339624158914	1.8043557621242963	0.28948090467225335	1.1797279768530908	1.7762692111820815	0.07583880838720586	0.7563733738377324	1.0160500750182047	0.08253526003799908	0.9079946639584369	1.37526192978651	0.08590757068007696	1.1311876980121216	1.7608475763262748	0.03557214020887731	0.9047526109100856	1.8116848058978707	-0.013602619944563856	0.9816255131146221	1.7939592790143883	0.11807525335017188	1.1831726751215774	1.7918352128467756	0.15898194641896052	0.5449144599802784	0.48717684823588076	0.1536090284004197	0.4124037979553563	0.2844750291766239	0.15503626196376658	0.36803880509720355	0.41331244799822536	0.2965532848895328	0.5120347870252933	0.5723515711675985	0.3409668691487119	0.5835970185114072	0.8273988553398377	0.2097243555127858	0.5799303732394293	1.0068039439243477	0.14736916762602248	0.556709690301172	1.0757668493478239	0.13752029861917617	0.6085508733577111	1.089252379167109	0.1552565254171451	0.6210570181443946	1.0959991529733102	0.012765428115920836	0.5584776270184902	0.5705878746402391	0.003924503673342063	0.6002421685538254	0.8125069316925666	0.08159253023868368	0.5438360117546353	1.0009617373184339	0.16729371504547003	0.5330849468810063	1.0498444905451914	0.16876957634244258	0.5597371124814706	1.0880008381621251	0.1494280374569892	0.593298718706097	1.0998940859116513
4	0.0677966101694915	0.2658998331352881	0.6907932580247726	1.0148088359634801	0.28099735736767745	0.8571004593551267	1.3816974026508082	0.2875079762595921	1.077251924930751	1.726168176966763	0.24705732052951446	0.9366320420766847	1.8024837011219803	0.3093537300519546	0.95673931731408	1.804346940194213	0.2894539962515355	1.1798351256748	1.7757515642424997	0.07545343194779859	0.75488481942276	1.0145601434924012	0.08211738853123668	0.910431130750072	1.375785580949908	0.08546177569934857	1.1307363181811232	1.7595633718833088	0.03551971425189537	0.904684472747252	1.811633965044674	-0.013710533305799242	0.9809454151886332	1.7939188803026056	0.11798938846922001	1.183771909302594	1.791928296333351	0.15907407457398282	0.5450482280840939	0.4871773688099986	0.15315396270057202	0.4123053728671309	0.2845193251511671	0.1546280857424106	0.3681334626976504	0.4149221244748256	0.29598406052154136	0.510404399943803	0.5717023593598289	0.3414395944895988	0.5842858374029976	0.8289703699227073	0.20766145938225933	0.5751059865365142	1.0069217181785206	0.14692642204528064	0.550798294013841	1.0763956071400491	0.13782500823357977	0.6057137633915527	1.089756931409213	0.15440754983208568	0.6202316821071873	1.0955679100093199	0.012793158993073537	0.5585724043216225	0.5705597893983418	0.0038465799282916407	0.6003674194949764	0.812874457432738	0.08158269505732582	0.543850417649632	1.00137728286016	0.16734812488652473	0.5282624480316498	1.0513538963800346	0.16691579980224297	0.5547124784126501	1.0885998004492405	0.14764795996606828	0.5871152377210178	1.1002421048084956
